<svg width="198" height="28" viewBox="0 0 198 28" fill="none" xmlns="http://www.w3.org/2000/svg">
<path fill-rule="evenodd" clip-rule="evenodd" d="M22.2088 9.20823C22.3049 9.34472 22.3874 9.49186 22.4548 9.64799C26.429 10.7202 29.3548 14.2683 29.3548 18.4687C29.3548 23.5156 25.1314 27.6215 19.9401 27.6215C17.2299 27.6215 14.7839 26.502 13.0646 24.7141H6.53803C5.13336 24.7141 3.99054 23.6031 3.99054 22.2375C3.99054 21.4532 4.3679 20.7533 4.95498 20.2992C4.3679 19.8452 3.99054 19.1453 3.99054 18.361C3.99054 17.5767 4.3679 16.8769 4.95498 16.4228C4.3679 15.9687 3.99054 15.2688 3.99054 14.4845C3.99054 13.7003 4.3679 13.0004 4.95498 12.5463C4.3679 12.0922 3.99054 11.3924 3.99054 10.6081C3.99054 9.24247 5.13336 8.13143 6.53803 8.13143H7.98235C7.70035 7.73291 7.53488 7.25078 7.53488 6.7316C7.53488 6.21242 7.70041 5.73028 7.98235 5.33176H3.54749C2.14283 5.33176 1 4.22072 1 2.85513C1 1.48953 2.14283 0.378494 3.54749 0.378494H17.1157C18.5203 0.378494 19.6632 1.48953 19.6632 2.85513C19.6632 3.37431 19.4976 3.85644 19.2157 4.25496H23.6505C25.0552 4.25496 26.198 5.366 26.198 6.7316C26.198 8.09719 25.0552 9.20823 23.6505 9.20823H22.2088ZM25.0904 6.7316C25.0904 5.95975 24.4445 5.33176 23.6505 5.33176H10.0824C9.28838 5.33176 8.64248 5.95975 8.64248 6.7316C8.64248 7.50345 9.28838 8.13143 10.0824 8.13143H20.1062H23.6505C24.4445 8.13143 25.0904 7.50345 25.0904 6.7316ZM2.10761 2.85513C2.10761 3.62698 2.75351 4.25496 3.54749 4.25496H17.1157C17.9097 4.25496 18.5556 3.62698 18.5556 2.85513C18.5556 2.08328 17.9097 1.45529 17.1157 1.45529H3.54749C2.75351 1.45529 2.10761 2.08328 2.10761 2.85513ZM20.1062 9.20823H6.53803C5.7441 9.20823 5.09814 9.83622 5.09814 10.6081C5.09814 11.3799 5.7441 12.0079 6.53803 12.0079H13.2779C14.9833 10.3459 17.3403 9.31596 19.9401 9.31596C20.2077 9.31596 20.4725 9.32749 20.7345 9.34886C20.5429 9.25863 20.3293 9.20823 20.1062 9.20823ZM12.3316 13.0847H6.53803C5.74404 13.0847 5.09814 13.7127 5.09814 14.4845C5.09814 15.2564 5.74404 15.8844 6.53803 15.8844H10.9082C11.2169 14.8665 11.703 13.9221 12.3316 13.0847ZM10.6539 16.9612H6.53803C5.74404 16.9612 5.09814 17.5891 5.09814 18.361C5.09814 19.1329 5.74404 19.7608 6.53803 19.7608H10.6197C10.5581 19.3386 10.5255 18.9073 10.5255 18.4687C10.5255 17.9553 10.5699 17.4518 10.6539 16.9612ZM5.09814 22.2375C5.09814 23.0094 5.74404 23.6373 6.53803 23.6373H12.1746C11.5792 22.7945 11.1253 21.8505 10.8458 20.8376H6.53803C5.74404 20.8376 5.09814 21.4656 5.09814 22.2375ZM11.6331 18.4687C11.6331 22.9218 15.3596 26.5447 19.9401 26.5447C24.5206 26.5447 28.2472 22.9218 28.2472 18.4687C28.2472 14.0156 24.5206 10.3928 19.9401 10.3928C15.3596 10.3928 11.6331 14.0156 11.6331 18.4687ZM18.5275 16.6284C18.5275 17.2825 19.16 17.8148 19.9375 17.8148C21.4217 17.8148 22.6293 18.906 22.6293 20.2474C22.6293 21.3892 21.7542 22.3492 20.5784 22.6098V22.8789C20.5784 23.223 20.2914 23.502 19.9375 23.502C19.5835 23.502 19.2966 23.223 19.2966 22.8789V22.6098C18.1208 22.3492 17.2457 21.3892 17.2457 20.2474C17.2457 19.9033 17.5327 19.6243 17.8866 19.6243C18.2405 19.6243 18.5275 19.9033 18.5275 20.2474C18.5275 20.9016 19.16 21.4338 19.9375 21.4338C20.7149 21.4338 21.3474 20.9016 21.3474 20.2474C21.3474 19.5931 20.7149 19.0609 19.9375 19.0609C18.4532 19.0609 17.2457 17.9697 17.2457 16.6284C17.2457 15.4866 18.1208 14.5265 19.2966 14.266V13.9419C19.2966 13.5978 19.5835 13.3188 19.9375 13.3188C20.2914 13.3188 20.5784 13.5978 20.5784 13.9419V14.266C21.7542 14.5265 22.6293 15.4866 22.6293 16.6284C22.6293 16.9724 22.3423 17.2514 21.9883 17.2514C21.6344 17.2514 21.3474 16.9724 21.3474 16.6284C21.3474 15.9741 20.7149 15.4419 19.9375 15.4419C19.16 15.4419 18.5275 15.9741 18.5275 16.6284Z" fill="#12A454"/>
<path d="M22.4548 9.64799L22.2253 9.74707L22.2731 9.85792L22.3897 9.88936L22.4548 9.64799ZM22.2088 9.20823V8.95823H21.727L22.0044 9.35215L22.2088 9.20823ZM13.0646 24.7141L13.2448 24.5408L13.171 24.4641H13.0646V24.7141ZM4.95498 20.2992L5.10794 20.497L5.36361 20.2992L5.10794 20.1015L4.95498 20.2992ZM4.95498 16.4228L5.10794 16.6205L5.36361 16.4228L5.10794 16.225L4.95498 16.4228ZM4.95498 12.5463L5.10794 12.7441L5.36361 12.5463L5.10794 12.3485L4.95498 12.5463ZM7.98235 8.13143V8.38143H8.46551L8.18643 7.98703L7.98235 8.13143ZM7.98235 5.33176L8.18644 5.47615L8.46545 5.08176H7.98235V5.33176ZM19.2157 4.25496L19.0116 4.11058L18.7326 4.50496H19.2157V4.25496ZM13.2779 12.0079V12.2579H13.3796L13.4524 12.1869L13.2779 12.0079ZM20.7345 9.34886L20.7142 9.59803L20.841 9.12268L20.7345 9.34886ZM12.3316 13.0847L12.5316 13.2348L12.832 12.8347H12.3316V13.0847ZM10.9082 15.8844V16.1344H11.0936L11.1474 15.9569L10.9082 15.8844ZM10.6539 16.9612L10.9003 17.0034L10.9503 16.7112H10.6539V16.9612ZM10.6197 19.7608V20.0108H10.9089L10.8671 19.7247L10.6197 19.7608ZM12.1746 23.6373V23.8873H12.6573L12.3788 23.4931L12.1746 23.6373ZM10.8458 20.8376L11.0868 20.7712L11.0362 20.5876H10.8458V20.8376ZM20.5784 22.6098L20.5243 22.3657L20.3284 22.4091V22.6098H20.5784ZM19.2966 22.6098H19.5466V22.4091L19.3506 22.3657L19.2966 22.6098ZM19.2966 14.266L19.3506 14.51L19.5466 14.4666V14.266H19.2966ZM20.5784 14.266H20.3284V14.4666L20.5243 14.51L20.5784 14.266ZM22.6844 9.54892C22.6102 9.37702 22.5192 9.21485 22.4132 9.06432L22.0044 9.35215C22.0905 9.47458 22.1647 9.6067 22.2253 9.74707L22.6844 9.54892ZM29.6048 18.4687C29.6048 14.148 26.596 10.5063 22.5199 9.40663L22.3897 9.88936C26.2621 10.9341 29.1048 14.3886 29.1048 18.4687H29.6048ZM19.9401 27.8715C25.2627 27.8715 29.6048 23.6603 29.6048 18.4687H29.1048C29.1048 23.3709 25 27.3715 19.9401 27.3715V27.8715ZM12.8844 24.8874C14.6495 26.7229 17.1599 27.8715 19.9401 27.8715V27.3715C17.2998 27.3715 14.9183 26.2811 13.2448 24.5408L12.8844 24.8874ZM6.53803 24.9641H13.0646V24.4641H6.53803V24.9641ZM3.74054 22.2375C3.74054 23.7477 5.00199 24.9641 6.53803 24.9641V24.4641C5.26474 24.4641 4.24054 23.4584 4.24054 22.2375H3.74054ZM4.80203 20.1015C4.15799 20.5996 3.74054 21.3706 3.74054 22.2375H4.24054C4.24054 21.5358 4.5778 20.907 5.10794 20.497L4.80203 20.1015ZM3.74054 18.361C3.74054 19.2279 4.158 19.9989 4.80203 20.497L5.10794 20.1015C4.5778 19.6915 4.24054 19.0627 4.24054 18.361H3.74054ZM4.80203 16.225C4.15799 16.7232 3.74054 17.4941 3.74054 18.361H4.24054C4.24054 17.6593 4.5778 17.0306 5.10794 16.6205L4.80203 16.225ZM3.74054 14.4845C3.74054 15.3514 4.15799 16.1224 4.80203 16.6205L5.10794 16.225C4.5778 15.815 4.24054 15.1862 4.24054 14.4845H3.74054ZM4.80203 12.3486C4.15799 12.8467 3.74054 13.6176 3.74054 14.4845H4.24054C4.24054 13.7829 4.5778 13.1541 5.10794 12.7441L4.80203 12.3486ZM3.74054 10.6081C3.74054 11.475 4.15799 12.2459 4.80203 12.7441L5.10794 12.3485C4.5778 11.9385 4.24054 11.3097 4.24054 10.6081H3.74054ZM6.53803 7.88143C5.00199 7.88143 3.74054 9.0978 3.74054 10.6081H4.24054C4.24054 9.38715 5.26474 8.38143 6.53803 8.38143V7.88143ZM7.98235 7.88143H6.53803V8.38143H7.98235V7.88143ZM7.28488 6.7316C7.28488 7.30491 7.46782 7.8371 7.77827 8.27584L8.18643 7.98703C7.93289 7.62872 7.78488 7.19664 7.78488 6.7316H7.28488ZM7.77826 5.18737C7.46788 5.62609 7.28488 6.15827 7.28488 6.7316H7.78488C7.78488 6.26657 7.93293 5.83448 8.18644 5.47615L7.77826 5.18737ZM3.54749 5.58176H7.98235V5.08176H3.54749V5.58176ZM0.75 2.85513C0.75 4.36539 2.01145 5.58176 3.54749 5.58176V5.08176C2.2742 5.08176 1.25 4.07605 1.25 2.85513H0.75ZM3.54749 0.128494C2.01145 0.128494 0.75 1.34486 0.75 2.85513H1.25C1.25 1.63421 2.2742 0.628494 3.54749 0.628494V0.128494ZM17.1157 0.128494H3.54749V0.628494H17.1157V0.128494ZM19.9132 2.85513C19.9132 1.34486 18.6517 0.128494 17.1157 0.128494V0.628494C18.389 0.628494 19.4132 1.63421 19.4132 2.85513H19.9132ZM19.4198 4.39935C19.7302 3.96064 19.9132 3.42846 19.9132 2.85513H19.4132C19.4132 3.32016 19.2651 3.75225 19.0116 4.11058L19.4198 4.39935ZM23.6505 4.00496H19.2157V4.50496H23.6505V4.00496ZM26.448 6.7316C26.448 5.22133 25.1866 4.00496 23.6505 4.00496V4.50496C24.9238 4.50496 25.948 5.51068 25.948 6.7316H26.448ZM23.6505 9.45823C25.1866 9.45823 26.448 8.24186 26.448 6.7316H25.948C25.948 7.95252 24.9238 8.95823 23.6505 8.95823V9.45823ZM22.2088 9.45823H23.6505V8.95823H22.2088V9.45823ZM23.6505 5.58176C24.3132 5.58176 24.8404 6.10442 24.8404 6.7316H25.3404C25.3404 5.81508 24.5759 5.08176 23.6505 5.08176V5.58176ZM10.0824 5.58176H23.6505V5.08176H10.0824V5.58176ZM8.89248 6.7316C8.89248 6.10442 9.41977 5.58176 10.0824 5.58176V5.08176C9.157 5.08176 8.39248 5.81508 8.39248 6.7316H8.89248ZM10.0824 7.88143C9.41977 7.88143 8.89248 7.35878 8.89248 6.7316H8.39248C8.39248 7.64811 9.157 8.38143 10.0824 8.38143V7.88143ZM20.1062 7.88143H10.0824V8.38143H20.1062V7.88143ZM23.6505 7.88143H20.1062V8.38143H23.6505V7.88143ZM24.8404 6.7316C24.8404 7.35878 24.3132 7.88143 23.6505 7.88143V8.38143C24.5759 8.38143 25.3404 7.64811 25.3404 6.7316H24.8404ZM3.54749 4.00496C2.88489 4.00496 2.35761 3.48231 2.35761 2.85513H1.85761C1.85761 3.77164 2.62212 4.50496 3.54749 4.50496V4.00496ZM17.1157 4.00496H3.54749V4.50496H17.1157V4.00496ZM18.3056 2.85513C18.3056 3.48231 17.7783 4.00496 17.1157 4.00496V4.50496C18.041 4.50496 18.8056 3.77164 18.8056 2.85513H18.3056ZM17.1157 1.70529C17.7783 1.70529 18.3056 2.22795 18.3056 2.85513H18.8056C18.8056 1.93861 18.041 1.20529 17.1157 1.20529V1.70529ZM3.54749 1.70529H17.1157V1.20529H3.54749V1.70529ZM2.35761 2.85513C2.35761 2.22795 2.88489 1.70529 3.54749 1.70529V1.20529C2.62212 1.20529 1.85761 1.93861 1.85761 2.85513H2.35761ZM6.53803 9.45823H20.1062V8.95823H6.53803V9.45823ZM5.34814 10.6081C5.34814 9.98089 5.87547 9.45823 6.53803 9.45823V8.95823C5.61272 8.95823 4.84814 9.69155 4.84814 10.6081H5.34814ZM6.53803 11.7579C5.87547 11.7579 5.34814 11.2352 5.34814 10.6081H4.84814C4.84814 11.5246 5.61272 12.2579 6.53803 12.2579V11.7579ZM13.2779 11.7579H6.53803V12.2579H13.2779V11.7579ZM19.9401 9.06596C17.2733 9.06596 14.8542 10.1226 13.1034 11.8289L13.4524 12.1869C15.1124 10.5691 17.4073 9.56596 19.9401 9.56596V9.06596ZM20.7548 9.09969C20.4865 9.0778 20.2149 9.06596 19.9401 9.06596V9.56596C20.2005 9.56596 20.4586 9.57718 20.7142 9.59803L20.7548 9.09969ZM20.1062 9.45823C20.2914 9.45823 20.4687 9.50004 20.628 9.57504L20.841 9.12268C20.617 9.01721 20.3671 8.95823 20.1062 8.95823V9.45823ZM6.53803 13.3347H12.3316V12.8347H6.53803V13.3347ZM5.34814 14.4845C5.34814 13.8574 5.87543 13.3347 6.53803 13.3347V12.8347C5.61266 12.8347 4.84814 13.568 4.84814 14.4845H5.34814ZM6.53803 15.6344C5.87542 15.6344 5.34814 15.1118 5.34814 14.4845H4.84814C4.84814 15.4011 5.61267 16.1344 6.53803 16.1344V15.6344ZM10.9082 15.6344H6.53803V16.1344H10.9082V15.6344ZM12.1317 12.9346C11.486 13.7947 10.9864 14.7653 10.669 15.8118L11.1474 15.9569C11.4474 14.9678 11.9199 14.0495 12.5316 13.2348L12.1317 12.9346ZM6.53803 17.2112H10.6539V16.7112H6.53803V17.2112ZM5.34814 18.361C5.34814 17.7338 5.87542 17.2112 6.53803 17.2112V16.7112C5.61267 16.7112 4.84814 17.4444 4.84814 18.361H5.34814ZM6.53803 19.5108C5.87542 19.5108 5.34814 18.9882 5.34814 18.361H4.84814C4.84814 19.2776 5.61267 20.0108 6.53803 20.0108V19.5108ZM10.6197 19.5108H6.53803V20.0108H10.6197V19.5108ZM10.2755 18.4687C10.2755 18.9197 10.309 19.3631 10.3723 19.797L10.8671 19.7247C10.8072 19.3141 10.7755 18.8949 10.7755 18.4687H10.2755ZM10.4075 16.919C10.3211 17.4232 10.2755 17.9408 10.2755 18.4687H10.7755C10.7755 17.9697 10.8186 17.4804 10.9003 17.0034L10.4075 16.919ZM6.53803 23.3873C5.87542 23.3873 5.34814 22.8647 5.34814 22.2375H4.84814C4.84814 23.1541 5.61267 23.8873 6.53803 23.8873V23.3873ZM12.1746 23.3873H6.53803V23.8873H12.1746V23.3873ZM10.6048 20.9041C10.8922 21.9456 11.3588 22.9158 11.9704 23.7816L12.3788 23.4931C11.7996 22.6732 11.3584 21.7554 11.0868 20.7712L10.6048 20.9041ZM6.53803 21.0876H10.8458V20.5876H6.53803V21.0876ZM5.34814 22.2375C5.34814 21.6102 5.87542 21.0876 6.53803 21.0876V20.5876C5.61267 20.5876 4.84814 21.3209 4.84814 22.2375H5.34814ZM19.9401 26.2947C15.491 26.2947 11.8831 22.7772 11.8831 18.4687H11.3831C11.3831 23.0665 15.2282 26.7947 19.9401 26.7947V26.2947ZM27.9972 18.4687C27.9972 22.7772 24.3892 26.2947 19.9401 26.2947V26.7947C24.652 26.7947 28.4972 23.0665 28.4972 18.4687H27.9972ZM19.9401 10.6428C24.3892 10.6428 27.9972 14.1603 27.9972 18.4687H28.4972C28.4972 13.871 24.652 10.1428 19.9401 10.1428V10.6428ZM11.8831 18.4687C11.8831 14.1603 15.491 10.6428 19.9401 10.6428V10.1428C15.2282 10.1428 11.3831 13.871 11.3831 18.4687H11.8831ZM19.9375 17.5648C19.2559 17.5648 18.7775 17.1057 18.7775 16.6284H18.2775C18.2775 17.4593 19.0641 18.0648 19.9375 18.0648V17.5648ZM22.8793 20.2474C22.8793 18.7447 21.5354 17.5648 19.9375 17.5648V18.0648C21.3081 18.0648 22.3793 19.0673 22.3793 20.2474H22.8793ZM20.6325 22.8538C21.9031 22.5723 22.8793 21.5254 22.8793 20.2474H22.3793C22.3793 21.253 21.6052 22.1261 20.5243 22.3657L20.6325 22.8538ZM20.8284 22.8789V22.6098H20.3284V22.8789H20.8284ZM19.9375 23.752C20.4227 23.752 20.8284 23.3677 20.8284 22.8789H20.3284C20.3284 23.0783 20.16 23.252 19.9375 23.252V23.752ZM19.0466 22.8789C19.0466 23.3677 19.4522 23.752 19.9375 23.752V23.252C19.7149 23.252 19.5466 23.0783 19.5466 22.8789H19.0466ZM19.0466 22.6098V22.8789H19.5466V22.6098H19.0466ZM16.9957 20.2474C16.9957 21.5254 17.9718 22.5723 19.2425 22.8538L19.3506 22.3657C18.2697 22.1261 17.4957 21.253 17.4957 20.2474H16.9957ZM17.8866 19.3743C17.4013 19.3743 16.9957 19.7586 16.9957 20.2474H17.4957C17.4957 20.048 17.664 19.8743 17.8866 19.8743V19.3743ZM18.7775 20.2474C18.7775 19.7586 18.3718 19.3743 17.8866 19.3743V19.8743C18.1091 19.8743 18.2775 20.048 18.2775 20.2474H18.7775ZM19.9375 21.1838C19.2559 21.1838 18.7775 20.7248 18.7775 20.2474H18.2775C18.2775 21.0784 19.0641 21.6838 19.9375 21.6838V21.1838ZM21.0974 20.2474C21.0974 20.7248 20.619 21.1838 19.9375 21.1838V21.6838C20.8108 21.6838 21.5974 21.0784 21.5974 20.2474H21.0974ZM19.9375 19.3109C20.619 19.3109 21.0974 19.7699 21.0974 20.2474H21.5974C21.5974 19.4164 20.8108 18.8109 19.9375 18.8109V19.3109ZM16.9957 16.6284C16.9957 18.1309 18.3395 19.3109 19.9375 19.3109V18.8109C18.5668 18.8109 17.4957 17.8084 17.4957 16.6284H16.9957ZM19.2425 14.0219C17.9718 14.3035 16.9957 15.3504 16.9957 16.6284H17.4957C17.4957 15.6228 18.2697 14.7496 19.3506 14.51L19.2425 14.0219ZM19.0466 13.9419V14.266H19.5466V13.9419H19.0466ZM19.9375 13.0688C19.4522 13.0688 19.0466 13.4532 19.0466 13.9419H19.5466C19.5466 13.7425 19.7149 13.5688 19.9375 13.5688V13.0688ZM20.8284 13.9419C20.8284 13.4532 20.4227 13.0688 19.9375 13.0688V13.5688C20.16 13.5688 20.3284 13.7425 20.3284 13.9419H20.8284ZM20.8284 14.266V13.9419H20.3284V14.266H20.8284ZM22.8793 16.6284C22.8793 15.3504 21.9031 14.3035 20.6325 14.0219L20.5243 14.51C21.6052 14.7496 22.3793 15.6228 22.3793 16.6284H22.8793ZM21.9883 17.5014C22.4736 17.5014 22.8793 17.1171 22.8793 16.6284H22.3793C22.3793 16.8277 22.2109 17.0014 21.9883 17.0014V17.5014ZM21.0974 16.6284C21.0974 17.1171 21.5031 17.5014 21.9883 17.5014V17.0014C21.7658 17.0014 21.5974 16.8277 21.5974 16.6284H21.0974ZM19.9375 15.6919C20.619 15.6919 21.0974 16.1509 21.0974 16.6284H21.5974C21.5974 15.7974 20.8108 15.1919 19.9375 15.1919V15.6919ZM18.7775 16.6284C18.7775 16.1509 19.2559 15.6919 19.9375 15.6919V15.1919C19.0641 15.1919 18.2775 15.7974 18.2775 16.6284H18.7775Z" fill="#12A454"/>
<path d="M35.5614 14.9099C35.5614 13.6995 35.8019 12.6457 36.2828 11.7486C36.7637 10.8372 37.4285 10.1394 38.2772 9.65524C39.1259 9.15683 40.0948 8.90762 41.1839 8.90762C42.6125 8.90762 43.7866 9.26363 44.706 9.97565C45.6395 10.6877 46.2407 11.656 46.5094 12.8807H44.9181C44.7201 12.0405 44.2887 11.3854 43.6239 10.9155C42.9732 10.4313 42.1599 10.1893 41.1839 10.1893C40.406 10.1893 39.7058 10.3673 39.0834 10.7233C38.4611 11.0793 37.966 11.6133 37.5982 12.3253C37.2446 13.0231 37.0678 13.8846 37.0678 14.9099C37.0678 15.9353 37.2446 16.8039 37.5982 17.5159C37.966 18.228 38.4611 18.762 39.0834 19.118C39.7058 19.474 40.406 19.652 41.1839 19.652C42.1599 19.652 42.9732 19.417 43.6239 18.9471C44.2887 18.4629 44.7201 17.7936 44.9181 16.9392H46.5094C46.2407 18.1354 45.6395 19.0966 44.706 19.8229C43.7724 20.5491 42.5984 20.9123 41.1839 20.9123C40.0948 20.9123 39.1259 20.6702 38.2772 20.186C37.4285 19.6876 36.7637 18.9898 36.2828 18.0927C35.8019 17.1813 35.5614 16.1204 35.5614 14.9099Z" fill="white"/>
<path d="M53.2624 20.9123C52.1733 20.9123 51.1902 20.6702 50.3132 20.186C49.4504 19.6876 48.7644 18.9898 48.2552 18.0927C47.7601 17.1813 47.5126 16.1204 47.5126 14.9099C47.5126 13.6995 47.7672 12.6457 48.2764 11.7486C48.7856 10.8372 49.4787 10.1394 50.3557 9.65524C51.2326 9.15683 52.2157 8.90762 53.3048 8.90762C54.394 8.90762 55.377 9.15683 56.254 9.65524C57.1451 10.1394 57.8382 10.8372 58.3333 11.7486C58.8425 12.6457 59.0971 13.6995 59.0971 14.9099C59.0971 16.1061 58.8425 17.1599 58.3333 18.0713C57.8241 18.9827 57.1239 19.6876 56.2328 20.186C55.3417 20.6702 54.3515 20.9123 53.2624 20.9123ZM53.2624 19.6093C54.0262 19.6093 54.7335 19.4384 55.3841 19.0966C56.0348 18.7406 56.5581 18.2137 56.9542 17.5159C57.3644 16.8039 57.5695 15.9353 57.5695 14.9099C57.5695 13.8846 57.3714 13.0231 56.9754 12.3253C56.5793 11.6133 56.056 11.0864 55.4053 10.7446C54.7547 10.3886 54.0474 10.2106 53.2836 10.2106C52.5198 10.2106 51.8126 10.3886 51.1619 10.7446C50.5113 11.0864 49.9879 11.6133 49.5918 12.3253C49.2099 13.0231 49.019 13.8846 49.019 14.9099C49.019 15.9353 49.2099 16.8039 49.5918 17.5159C49.9879 18.2137 50.5042 18.7406 51.1407 19.0966C51.7914 19.4384 52.4986 19.6093 53.2624 19.6093Z" fill="white"/>
<path d="M66.1751 8.8649C67.5613 8.8649 68.6929 9.29923 69.5699 10.1679C70.4468 11.0223 70.8853 12.2684 70.8853 13.906V20.7414H69.4214V14.0769C69.4214 12.8095 69.1031 11.8411 68.4666 11.1718C67.8442 10.5025 66.9885 10.1679 65.8993 10.1679C64.7819 10.1679 63.8908 10.5239 63.226 11.2359C62.5612 11.9479 62.2288 12.9946 62.2288 14.3759V20.7414H60.7436V9.07851H62.2288V11.065C62.5965 10.353 63.127 9.81189 63.82 9.44164C64.5131 9.05715 65.2982 8.8649 66.1751 8.8649Z" fill="white"/>
<path d="M75.0399 10.3388V17.58C75.0399 18.292 75.1743 18.7833 75.443 19.0539C75.7118 19.3245 76.1856 19.4597 76.8646 19.4597H78.2225V20.7414H76.6312C75.5845 20.7414 74.8065 20.4993 74.2973 20.0151C73.7881 19.5167 73.5335 18.705 73.5335 17.58V10.3388H71.921V9.07851H73.5335V6.15211H75.0399V9.07851H78.2225V10.3388H75.0399Z" fill="white"/>
<path d="M81.0962 11.1505C81.4215 10.4242 81.9166 9.86173 82.5814 9.463C83.2604 9.06427 84.0878 8.8649 85.0638 8.8649V10.4242H84.6607C83.5857 10.4242 82.7229 10.7162 82.0722 11.3C81.4215 11.8839 81.0962 12.8593 81.0962 14.2264V20.7414H79.611V9.07851H81.0962V11.1505Z" fill="white"/>
<path d="M91.3081 20.9123C90.2189 20.9123 89.2359 20.6702 88.3589 20.186C87.4961 19.6876 86.8101 18.9898 86.3009 18.0927C85.8058 17.1813 85.5583 16.1204 85.5583 14.9099C85.5583 13.6995 85.8129 12.6457 86.3221 11.7486C86.8313 10.8372 87.5244 10.1394 88.4013 9.65524C89.2783 9.15683 90.2614 8.90762 91.3505 8.90762C92.4397 8.90762 93.4227 9.15683 94.2997 9.65524C95.1908 10.1394 95.8839 10.8372 96.379 11.7486C96.8882 12.6457 97.1428 13.6995 97.1428 14.9099C97.1428 16.1061 96.8882 17.1599 96.379 18.0713C95.8698 18.9827 95.1696 19.6876 94.2785 20.186C93.3874 20.6702 92.3972 20.9123 91.3081 20.9123ZM91.3081 19.6093C92.0719 19.6093 92.7791 19.4384 93.4298 19.0966C94.0804 18.7406 94.6038 18.2137 94.9999 17.5159C95.41 16.8039 95.6152 15.9353 95.6152 14.9099C95.6152 13.8846 95.4171 13.0231 95.0211 12.3253C94.625 11.6133 94.1017 11.0864 93.451 10.7446C92.8004 10.3886 92.0931 10.2106 91.3293 10.2106C90.5655 10.2106 89.8582 10.3886 89.2076 10.7446C88.5569 11.0864 88.0336 11.6133 87.6375 12.3253C87.2556 13.0231 87.0647 13.8846 87.0647 14.9099C87.0647 15.9353 87.2556 16.8039 87.6375 17.5159C88.0336 18.2137 88.5499 18.7406 89.1864 19.0966C89.837 19.4384 90.5443 19.6093 91.3081 19.6093Z" fill="white"/>
<path d="M100.274 4.93456V20.7414H98.7893V4.93456H100.274Z" fill="white"/>
<path d="M111.512 11.8554H109.56V20.7414H105.932V11.8554H104.617V8.82218H105.932V8.48041C105.932 7.01365 106.35 5.9029 107.184 5.14816C108.019 4.37918 109.242 3.99469 110.855 3.99469C111.123 3.99469 111.321 4.00181 111.449 4.01605V7.11333C110.756 7.07061 110.268 7.1703 109.985 7.41238C109.702 7.65447 109.56 8.0888 109.56 8.71538V8.82218H111.512V11.8554Z" fill="white"/>
<path d="M115.042 7.58327C114.405 7.58327 113.882 7.39814 113.472 7.02789C113.076 6.6434 112.878 6.17347 112.878 5.6181C112.878 5.04848 113.076 4.57855 113.472 4.2083C113.882 3.82381 114.405 3.63156 115.042 3.63156C115.664 3.63156 116.174 3.82381 116.57 4.2083C116.98 4.57855 117.185 5.04848 117.185 5.6181C117.185 6.17347 116.98 6.6434 116.57 7.02789C116.174 7.39814 115.664 7.58327 115.042 7.58327ZM116.845 8.82218V20.7414H113.217V8.82218H116.845Z" fill="white"/>
<path d="M126.688 8.69402C128.075 8.69402 129.178 9.14971 129.998 10.0611C130.833 10.9582 131.25 12.1972 131.25 13.7778V20.7414H127.643V14.2691C127.643 13.4717 127.438 12.8522 127.028 12.4108C126.618 11.9693 126.066 11.7486 125.373 11.7486C124.68 11.7486 124.128 11.9693 123.718 12.4108C123.308 12.8522 123.103 13.4717 123.103 14.2691V20.7414H119.475V8.82218H123.103V10.4029C123.471 9.87597 123.966 9.463 124.588 9.16395C125.21 8.85066 125.91 8.69402 126.688 8.69402Z" fill="white"/>
<path d="M133.05 14.7604C133.05 13.5357 133.276 12.4606 133.729 11.535C134.196 10.6093 134.825 9.89733 135.617 9.39892C136.409 8.9005 137.293 8.6513 138.269 8.6513C139.104 8.6513 139.832 8.82218 140.455 9.16395C141.091 9.50572 141.579 9.95429 141.919 10.5097V8.82218H145.547V20.7414H141.919V19.0539C141.565 19.6093 141.07 20.0578 140.433 20.3996C139.811 20.7414 139.083 20.9123 138.248 20.9123C137.286 20.9123 136.409 20.6631 135.617 20.1646C134.825 19.652 134.196 18.9328 133.729 18.0072C133.276 17.0674 133.05 15.9851 133.05 14.7604ZM141.919 14.7818C141.919 13.8704 141.664 13.1513 141.155 12.6244C140.66 12.0975 140.052 11.834 139.33 11.834C138.609 11.834 137.993 12.0975 137.484 12.6244C136.989 13.137 136.742 13.849 136.742 14.7604C136.742 15.6718 136.989 16.3981 137.484 16.9392C137.993 17.4661 138.609 17.7295 139.33 17.7295C140.052 17.7295 140.66 17.4661 141.155 16.9392C141.664 16.4123 141.919 15.6932 141.919 14.7818Z" fill="white"/>
<path d="M155.385 8.69402C156.772 8.69402 157.875 9.14971 158.695 10.0611C159.53 10.9582 159.947 12.1972 159.947 13.7778V20.7414H156.34V14.2691C156.34 13.4717 156.135 12.8522 155.725 12.4108C155.315 11.9693 154.763 11.7486 154.07 11.7486C153.377 11.7486 152.825 11.9693 152.415 12.4108C152.005 12.8522 151.8 13.4717 151.8 14.2691V20.7414H148.172V8.82218H151.8V10.4029C152.167 9.87597 152.662 9.463 153.285 9.16395C153.907 8.85066 154.607 8.69402 155.385 8.69402Z" fill="white"/>
<path d="M161.747 14.7818C161.747 13.5429 161.994 12.4606 162.489 11.535C162.999 10.6093 163.699 9.89733 164.59 9.39892C165.495 8.9005 166.528 8.6513 167.688 8.6513C169.173 8.6513 170.41 9.04291 171.401 9.82613C172.405 10.6093 173.063 11.713 173.374 13.137H169.512C169.187 12.2256 168.557 11.7699 167.624 11.7699C166.959 11.7699 166.429 12.0334 166.033 12.5603C165.637 13.0729 165.439 13.8134 165.439 14.7818C165.439 15.7501 165.637 16.4977 166.033 17.0246C166.429 17.5373 166.959 17.7936 167.624 17.7936C168.557 17.7936 169.187 17.3379 169.512 16.4265H173.374C173.063 17.8221 172.405 18.9186 171.401 19.7161C170.396 20.5135 169.159 20.9123 167.688 20.9123C166.528 20.9123 165.495 20.6631 164.59 20.1646C163.699 19.6662 162.999 18.9542 162.489 18.0286C161.994 17.103 161.747 16.0207 161.747 14.7818Z" fill="white"/>
<path d="M186.475 14.5895C186.475 14.9313 186.453 15.2873 186.411 15.6576H178.2C178.257 16.3981 178.49 16.9677 178.9 17.3664C179.324 17.7509 179.841 17.9431 180.449 17.9431C181.354 17.9431 181.984 17.5587 182.337 16.7897H186.199C186.001 17.5729 185.64 18.2778 185.117 18.9044C184.608 19.5309 183.964 20.0222 183.186 20.3782C182.408 20.7343 181.538 20.9123 180.576 20.9123C179.416 20.9123 178.384 20.6631 177.479 20.1646C176.573 19.6662 175.866 18.9542 175.357 18.0286C174.848 17.103 174.593 16.0207 174.593 14.7818C174.593 13.5429 174.841 12.4606 175.336 11.535C175.845 10.6093 176.552 9.89733 177.457 9.39892C178.363 8.9005 179.402 8.6513 180.576 8.6513C181.722 8.6513 182.74 8.89338 183.632 9.37756C184.523 9.86173 185.216 10.5524 185.711 11.4495C186.22 12.3467 186.475 13.3933 186.475 14.5895ZM182.762 13.6283C182.762 13.0017 182.549 12.5033 182.125 12.1331C181.701 11.7628 181.17 11.5777 180.534 11.5777C179.926 11.5777 179.409 11.7557 178.985 12.1117C178.575 12.4677 178.32 12.9733 178.221 13.6283H182.762Z" fill="white"/>
<path d="M193.205 20.9123C192.172 20.9123 191.253 20.7343 190.447 20.3782C189.64 20.0222 189.004 19.5381 188.537 18.9257C188.07 18.2992 187.809 17.6014 187.752 16.8324H191.338C191.38 17.2454 191.571 17.58 191.911 17.8363C192.25 18.0927 192.667 18.2208 193.163 18.2208C193.615 18.2208 193.962 18.1354 194.202 17.9645C194.457 17.7794 194.584 17.5444 194.584 17.2596C194.584 16.9178 194.407 16.6686 194.054 16.512C193.7 16.3411 193.127 16.156 192.335 15.9566C191.486 15.7572 190.779 15.5508 190.213 15.3372C189.648 15.1093 189.16 14.7604 188.749 14.2905C188.339 13.8063 188.134 13.1584 188.134 12.3467C188.134 11.6631 188.318 11.0437 188.686 10.4883C189.068 9.91869 189.619 9.47012 190.341 9.14259C191.076 8.81506 191.946 8.6513 192.95 8.6513C194.436 8.6513 195.602 9.02154 196.451 9.76205C197.314 10.5025 197.809 11.4851 197.936 12.7098H194.584C194.527 12.2968 194.344 11.9693 194.032 11.7272C193.735 11.4851 193.339 11.3641 192.844 11.3641C192.42 11.3641 192.095 11.4495 191.868 11.6204C191.642 11.7771 191.529 11.9978 191.529 12.2826C191.529 12.6244 191.706 12.8807 192.059 13.0516C192.427 13.2225 192.993 13.3933 193.757 13.5642C194.634 13.7921 195.348 14.0199 195.9 14.2478C196.451 14.4614 196.932 14.8174 197.342 15.3158C197.767 15.8 197.986 16.455 198 17.281C198 17.9787 197.802 18.6053 197.406 19.1607C197.024 19.7018 196.465 20.129 195.73 20.4423C195.008 20.7556 194.167 20.9123 193.205 20.9123Z" fill="white"/>
</svg>
